<svg xmlns="http://www.w3.org/2000/svg" xmlns:xlink="http://www.w3.org/1999/xlink" viewBox="0 0 107 35" fill="#fff" fill-rule="evenodd" stroke="#000" stroke-linecap="round" stroke-linejoin="round"><style><![CDATA[.B{fill-rule:nonzero}]]></style><use xlink:href="#A" x=".5" y=".5"/><symbol id="A" overflow="visible"><g stroke="none"><g fill="#506784" class="B"><use xlink:href="#C"/><use xlink:href="#C" x="32.346"/><path d="M46.21 9.242a5.83 5.83 0 0 0-3.196.958 1.54 1.54 0 0 0-2.965.583v15.403a1.54 1.54 0 1 0 3.081 0V23.76a5.82 5.82 0 0 0 3.081.886c3.402 0 6.16-2.955 6.16-6.6v-2.202c0-3.645-2.76-6.6-6.16-6.6zm3.08 8.962c0 1.856-1.38 3.36-3.08 3.36s-3.08-1.504-3.08-3.36v-2.52c0-1.856 1.38-3.36 3.08-3.36s3.08 1.504 3.08 3.36zm18.485-8.962c-3.402 0-6.16 2.955-6.16 6.6v2.2c0 3.645 2.76 6.6 6.16 6.6s6.16-2.955 6.16-6.6v-2.2c0-3.645-2.76-6.6-6.16-6.6zm3.08 8.962c0 1.856-1.38 3.36-3.08 3.36s-3.08-1.504-3.08-3.36v-2.52c0-1.856 1.38-3.36 3.08-3.36s3.08 1.504 3.08 3.36zm12.322 3.36a3.08 3.08 0 0 1-3.081-3.081v-6.16h3.08a1.54 1.54 0 0 0 1.502-1.541 1.54 1.54 0 0 0-1.502-1.54h-3.08v-1.54A1.54 1.54 0 0 0 78.556 6.2a1.54 1.54 0 0 0-1.54 1.502v10.782a6.16 6.16 0 0 0 6.161 6.161 1.54 1.54 0 0 0 1.502-1.541 1.54 1.54 0 0 0-1.502-1.54zm21.638-12.196a1.54 1.54 0 0 0-2.023.809l-3.183 7.45-3.194-7.445a1.54 1.54 0 0 0-2.703-.377 1.54 1.54 0 0 0-.12 1.591l4.35 10.146-.513 1.207a3.08 3.08 0 0 1-2.775 1.9 1.54 1.54 0 0 0-1.488 1.558 1.54 1.54 0 0 0 1.524 1.523h.036a6.16 6.16 0 0 0 5.54-3.781l5.4-12.55a1.54 1.54 0 0 0-.839-2.028z"/></g><path d="M0 1.54C0 .687.687 0 1.54 0h30.807c.853 0 1.54.687 1.54 1.54v30.807c0 .853-.687 1.54-1.54 1.54H1.54c-.853 0-1.54-.687-1.54-1.54z" fill="#119dff" class="B"/><g fill="#25fefd"><use xlink:href="#D" class="B"/><use xlink:href="#D" x="6.161" y="-6.161" class="B"/><use xlink:href="#D" y="-6.161" class="B"/><use xlink:href="#D" x="-6.161" y="-6.161" class="B"/><use xlink:href="#D" x="-12.322" y="-6.161" class="B"/><use xlink:href="#D" x="-12.322" class="B"/></g><path d="M7.702 18.484a1.54 1.54 0 0 0-1.54 1.54v6.16a1.54 1.54 0 1 0 3.081 0v-6.16a1.54 1.54 0 0 0-1.54-1.54zm12.323 0a1.54 1.54 0 0 0-1.54 1.54v6.16a1.54 1.54 0 1 0 3.081 0v-6.16a1.54 1.54 0 0 0-1.54-1.54zm-6.162-6.16a1.54 1.54 0 0 0-1.54 1.54v12.323a1.54 1.54 0 0 0 1.54 1.502 1.54 1.54 0 0 0 1.54-1.502V13.864a1.54 1.54 0 0 0-1.54-1.54zm12.322 0a1.54 1.54 0 0 0-1.54 1.54v12.323a1.54 1.54 0 1 0 3.081 0V13.864a1.54 1.54 0 0 0-1.54-1.54z" class="B"/></g></symbol><defs ><path id="C" d="M55.452 7.702c0-.853.687-1.54 1.54-1.54h.001c.853 0 1.54.687 1.54 1.54v15.404c0 .853-.687 1.54-1.54 1.54h-.001c-.853 0-1.54-.687-1.54-1.54z"/><path id="D" d="M18.484 13.863c0-.853.687-1.54 1.54-1.54s1.54.687 1.54 1.54-.687 1.54-1.54 1.54-1.54-.687-1.54-1.54z"/></defs></svg>